<svg xmlns="http://www.w3.org/2000/svg" viewBox="0 0 512 512">
  <!-- Circular Background with Gradient -->
  <defs>
    <linearGradient id="grad1" x1="0%" y1="0%" x2="100%" y2="100%">
      <stop offset="0%" style="stop-color:#4f46e5;stop-opacity:1" />
      <stop offset="100%" style="stop-color:#7c3aed;stop-opacity:1" />
    </linearGradient>
  </defs>
  <circle cx="256" cy="256" r="256" fill="url(#grad1)"/>
  
  <!-- Graduation Cap Icon -->
  <path d="M256 120L64 216L256 312L448 216L256 120ZM416 333L416 232L448 216L448 349C448 376.6 425.6 399 398 399C370.4 399 348 376.6 348 349L348 266L416 300V333ZM128 248V328C128 354.5 185.3 376 256 376C326.7 376 384 354.5 384 328V248L256 312L128 248Z" fill="white"/>
</svg>
